# xmcd
#
# Track frame offsets: 
#        150
#        17087
#        41089
#        58302
#        87070
#        103420
#        128077
#        156850
#        179775
#        198150
#        216145
#
# Disc length: 3251 seconds
#
# Revision: 0
# Processed by: cddbd v1.4PL0 Copyright (c) Steve Scherf et al.
# Submitted via: ExactAudioCopy v0.90b2
#
DISCID=9e0cb10b
DTITLE=Oernes Blues Band - Still Rollin'
DYEAR=2001
DGENRE=Blues
TTITLE0=I can't hold out
TTITLE1=Get on with your life
TTITLE2=Who do you love
TTITLE3=Sad, sad situation
TTITLE4=Sweet home chicago
TTITLE5=Black magic woman
TTITLE6=Have you ever loved a woman
TTITLE7=Hoochie coochie man
TTITLE8=Red house
TTITLE9=Still Rollin'
TTITLE10=Muddy water blues
EXTD=
EXTT0=
EXTT1=
EXTT2=
EXTT3=
EXTT4=
EXTT5=
EXTT6=
EXTT7=
EXTT8=
EXTT9=
EXTT10=
PLAYORDER=
